<mxfile host="Electron" modified="2025-01-02T21:18:46.488Z" agent="Mozilla/5.0 (Windows NT 10.0; Win64; x64) AppleWebKit/537.36 (KHTML, like Gecko) draw.io/22.1.16 Chrome/120.0.6099.109 Electron/28.1.0 Safari/537.36" etag="9BauF3U4zbx3k5T-gB8V" version="22.1.16" type="device">
  <diagram name="Side-1" id="_zsud-58mrB0ZAeQUUfA">
    <mxGraphModel dx="1098" dy="1180" grid="1" gridSize="10" guides="1" tooltips="1" connect="1" arrows="1" fold="1" page="1" pageScale="1" pageWidth="827" pageHeight="1169" math="0" shadow="0">
      <root>
        <mxCell id="0" />
        <mxCell id="1" parent="0" />
        <mxCell id="cmzHNQ2vZMY-cwxqjhJu-2" value="SetEQCoefficients" style="swimlane;fontStyle=1;align=center;verticalAlign=top;childLayout=stackLayout;horizontal=1;startSize=26;horizontalStack=0;resizeParent=1;resizeParentMax=0;resizeLast=0;collapsible=1;marginBottom=0;whiteSpace=wrap;html=1;" vertex="1" parent="1">
          <mxGeometry x="120" y="310" width="270" height="238" as="geometry" />
        </mxCell>
        <mxCell id="cmzHNQ2vZMY-cwxqjhJu-3" value="- isReady: bool&lt;br&gt;- eq: ParametricEQ*&lt;br&gt;- iFilter: uint8_t&lt;br&gt;- b0_a0: uint32_t&lt;br&gt;- b1_a0: uint32_t&lt;br&gt;- b2_a0: uint32_t&lt;br&gt;- a1_a0: uint32_t&lt;br&gt;- a2_a0: uint32_t" style="text;strokeColor=none;fillColor=none;align=left;verticalAlign=top;spacingLeft=4;spacingRight=4;overflow=hidden;rotatable=0;points=[[0,0.5],[1,0.5]];portConstraint=eastwest;whiteSpace=wrap;html=1;" vertex="1" parent="cmzHNQ2vZMY-cwxqjhJu-2">
          <mxGeometry y="26" width="270" height="124" as="geometry" />
        </mxCell>
        <mxCell id="cmzHNQ2vZMY-cwxqjhJu-4" value="" style="line;strokeWidth=1;fillColor=none;align=left;verticalAlign=middle;spacingTop=-1;spacingLeft=3;spacingRight=3;rotatable=0;labelPosition=right;points=[];portConstraint=eastwest;strokeColor=inherit;" vertex="1" parent="cmzHNQ2vZMY-cwxqjhJu-2">
          <mxGeometry y="150" width="270" height="8" as="geometry" />
        </mxCell>
        <mxCell id="cmzHNQ2vZMY-cwxqjhJu-5" value="+&amp;nbsp;SetEQCoefficients():&amp;nbsp;SetEQCoefficients&lt;br&gt;+&amp;nbsp;SetEQCoefficients(ParametricEQ*, uint8_t, uint32_t, uint32_t, uint32_t, uint32_t, uint32_t):&amp;nbsp;SetEQCoefficients&lt;br&gt;+ Execute(): void" style="text;strokeColor=none;fillColor=none;align=left;verticalAlign=top;spacingLeft=4;spacingRight=4;overflow=hidden;rotatable=0;points=[[0,0.5],[1,0.5]];portConstraint=eastwest;whiteSpace=wrap;html=1;" vertex="1" parent="cmzHNQ2vZMY-cwxqjhJu-2">
          <mxGeometry y="158" width="270" height="80" as="geometry" />
        </mxCell>
      </root>
    </mxGraphModel>
  </diagram>
</mxfile>
